# xmcd CD database file
#
# Track frame offsets:
#	150
#	13302
#	26031
#	40381
#	63190
#	80565
#	95124
#	109095
#	125042
#	143992
#
# Disc length: 2064 seconds
#
# Revision: 0
# Processed by: cddbd v1.5.2PL0 Copyright (c) Steve Scherf et al.
# Submitted via: CDex 1.70beta3
#
DISCID=90080e0a
DTITLE=Live On The Sunset Strip! - Don Randi
DYEAR=1966
DGENRE=Jazz
TTITLE0=Mellow Yellow
TTITLE1=Bang, Bang
TTITLE2=You Said You Loveed Me
TTITLE3=Chicago
TTITLE4=Hang Loose
TTITLE5=Manhã De Carnaval
TTITLE6=Yesterday
TTITLE7=Satisfaction
TTITLE8=Medley: When I Fall In Love - Georgia On My Mind
TTITLE9=He Said, She Said
EXTD=YEAR: 1966
EXTT0=
EXTT1=
EXTT2=
EXTT3=
EXTT4=
EXTT5=
EXTT6=
EXTT7=
EXTT8=
EXTT9=
PLAYORDER=
